<svg width="36" height="36" viewBox="0 0 36 36" fill="none" xmlns="http://www.w3.org/2000/svg">
<path d="M36 17.9858C36 19.38 35.8327 20.7743 35.5259 22.0849H25.2084C23.7583 22.0849 22.4198 22.782 21.1371 24.26C20.0217 25.5148 19.0736 27.1879 18.0697 28.9168C16.6475 31.3986 15.1696 33.9641 13.1898 35.3583C10.4291 34.6054 7.91941 33.1833 5.8559 31.315H10.0108C11.8791 31.315 13.5244 30.4784 15.086 28.8053C16.4245 27.3274 17.5399 25.4033 18.5995 23.5349C20.5236 20.1887 22.3362 17.0098 25.1805 17.0098H35.9721C35.9721 17.3165 36 17.6511 36 17.9858Z" fill="#999999"/>
<path d="M18.0697 23.2011C19.0736 21.4443 20.0217 19.7991 21.1371 18.5442C22.4198 17.0942 23.7583 16.3692 25.2084 16.3692H35.9164C35.7491 14.473 35.275 12.6604 34.5779 10.9873H25.2084C22.3641 10.9873 20.5515 14.1662 18.6274 17.5125C17.5678 19.3808 16.4524 21.3049 15.1139 22.7828C13.5523 24.4838 11.9071 25.2925 10.0387 25.2925H1.53369C2.42602 27.3003 3.68087 29.1407 5.21456 30.6744H10.0108C13.7754 30.6744 15.9783 26.882 18.0697 23.2011Z" fill="#808080"/>
<path d="M18.6274 29.224C17.5678 31.0924 16.4524 33.0164 15.1139 34.4944C14.7514 34.8848 14.3889 35.2473 13.9985 35.5261C15.0581 35.7771 16.1735 35.9165 17.2889 35.9723C17.5399 35.5261 17.8188 35.08 18.0697 34.6338C19.0736 32.877 20.0217 31.2318 21.1371 29.9769C22.4199 28.5269 23.7584 27.8019 25.2084 27.8019H33.1C34.1038 26.2682 34.8846 24.5393 35.3866 22.7267H25.2084C22.3641 22.6989 20.5515 25.8778 18.6274 29.224Z" fill="#D3D3D3"/>
<path d="M18.6275 34.9402C18.4323 35.3027 18.2371 35.6374 18.014 35.9999C24.0651 35.9999 29.4191 33.0161 32.6817 28.415H25.2084C22.3641 28.415 20.5515 31.594 18.6275 34.9402Z" fill="#F2F2F2"/>
<path d="M17.9024 0C12.0464 0.0278854 6.85976 2.84431 3.59717 7.19443H10.0108C13.6917 7.19443 15.8388 3.56933 17.9024 0Z" fill="#F2F2F2"/>
<path d="M18.0697 17.1767C19.0736 15.4199 20.0217 13.7747 21.1371 12.5198C22.4199 11.0698 23.7584 10.3448 25.2084 10.3448H34.299C33.4067 8.42069 32.1519 6.69179 30.6739 5.21387H25.2084C22.3641 5.21387 20.5515 8.36491 18.6274 11.7112C17.5678 13.5795 16.4524 15.5036 15.1139 16.9815C13.5523 18.6825 11.9071 19.4912 10.0388 19.4912H0.0557861C0.195213 21.3037 0.613494 23.0047 1.25486 24.6221H10.0109C13.7754 24.65 15.9783 20.8297 18.0697 17.1767Z" fill="#808080"/>
<path d="M18.0697 11.4051C19.0736 9.64836 20.0217 8.00312 21.1371 6.74828C22.4198 5.29824 23.7583 4.57322 25.2084 4.57322H30.0047C27.8296 2.64913 25.2084 1.22697 22.3083 0.501953C20.914 1.72891 19.7986 3.70877 18.6274 5.77229C17.5678 7.64061 16.4524 9.5647 15.1139 11.0426C13.5523 12.7436 11.9071 13.5523 10.0387 13.5523H0.557708C0.195198 14.9745 0 16.4524 0 17.9861C0 18.2928 0 18.5717 0.0278854 18.8784H10.0109C13.7754 18.8784 15.9783 15.086 18.0697 11.4051Z" fill="#999999"/>
<path d="M18.0697 5.46554C19.0736 3.70876 20.0217 2.06352 21.1371 0.808676C21.2766 0.641364 21.416 0.501937 21.5554 0.36251C20.6073 0.167312 19.6313 0.0557708 18.6275 0C18.6275 0 18.6275 0 18.6275 0.0278854C17.5399 1.89621 16.4245 3.8203 15.086 5.29822C13.5244 6.99923 11.8792 7.80791 10.0109 7.80791H3.15107C2.09142 9.36949 1.25486 11.0705 0.725037 12.9109H10.0109C13.7754 12.9388 15.9783 9.11852 18.0697 5.46554Z" fill="#D3D3D3"/>
</svg>
