<svg width="130" height="38" viewBox="0 0 130 38" fill="none" xmlns="http://www.w3.org/2000/svg">
<path d="M52.552 28C50.8533 28 49.5373 27.5707 48.604 26.712C47.6707 25.8533 47.204 24.5933 47.204 22.932V13.44C47.204 11.7973 47.708 10.5467 48.716 9.688C49.724 8.82933 51.096 8.4 52.832 8.4H56.948V10.276H52.552C51.6933 10.276 50.9933 10.528 50.452 11.032C49.9293 11.5173 49.668 12.1707 49.668 12.992V23.436C49.668 24.276 49.92 24.9387 50.424 25.424C50.928 25.9093 51.6 26.152 52.44 26.152H55.044V18.452H52.524V16.604H57.508V28H52.552ZM60.9503 8.4H65.9062C69.3223 8.4 71.0303 10.136 71.0303 13.608C71.0303 15.4187 70.5356 16.8373 69.5463 17.864C68.5756 18.872 67.1849 19.376 65.3743 19.376H63.4143V28H60.9503V8.4ZM65.2063 17.528C66.2703 17.528 67.0916 17.164 67.6703 16.436C68.2676 15.708 68.5663 14.7653 68.5663 13.608C68.5663 12.5067 68.2769 11.676 67.6983 11.116C67.1383 10.5373 66.3076 10.248 65.2063 10.248H63.4143V17.528H65.2063ZM73.6098 8.4H78.4818C80.1804 8.4 81.4964 8.82933 82.4298 9.688C83.3631 10.5467 83.8298 11.8067 83.8298 13.468V22.932C83.8298 24.5933 83.3631 25.8533 82.4298 26.712C81.4964 27.552 80.1804 27.9813 78.4818 28H73.6098V8.4ZM78.4818 26.096C79.3404 26.096 80.0311 25.8533 80.5538 25.368C81.0951 24.864 81.3658 24.2013 81.3658 23.38V13.02C81.3658 12.1987 81.0951 11.5453 80.5538 11.06C80.0311 10.556 79.3404 10.304 78.4818 10.304H76.1018V26.096H78.4818ZM91.3018 28V8.4H93.7658V26.152H99.5058V28H91.3018ZM104.515 28C103.843 28 103.218 27.832 102.639 27.496C102.079 27.16 101.631 26.7027 101.295 26.124C100.978 25.5453 100.819 24.892 100.819 24.164V22.708C100.819 21.8307 101.034 21.0933 101.463 20.496C101.911 19.8987 102.462 19.4787 103.115 19.236L106.587 17.948V16.632C106.587 16.184 106.447 15.82 106.167 15.54C105.906 15.2413 105.561 15.092 105.131 15.092H101.967V13.44H105.327C106.354 13.44 107.166 13.748 107.763 14.364C108.379 14.9613 108.687 15.7827 108.687 16.828V28H104.515ZM106.587 26.292V19.712L104.123 20.636C103.638 20.8227 103.293 21.0747 103.087 21.392C102.901 21.7093 102.807 22.2133 102.807 22.904V24.472C102.807 24.976 102.994 25.4053 103.367 25.76C103.741 26.1147 104.189 26.292 104.711 26.292H106.587ZM111.774 8.4H114.014V12.768L117.766 14.084C118.419 14.308 118.96 14.7 119.39 15.26C119.838 15.8013 120.062 16.4733 120.062 17.276V24.472C120.062 25.48 119.707 26.32 118.998 26.992C118.288 27.664 117.42 28 116.394 28H111.774V8.4ZM115.918 26.32C116.44 26.32 116.888 26.1427 117.262 25.788C117.635 25.4333 117.822 24.9947 117.822 24.472V17.724C117.822 17.0147 117.719 16.5013 117.514 16.184C117.327 15.848 116.991 15.6053 116.506 15.456L114.014 14.616V26.32H115.918ZM121.871 26.32H124.251C125.054 26.32 125.633 26.1053 125.987 25.676C126.361 25.228 126.547 24.6493 126.547 23.94C126.547 23.38 126.379 22.904 126.043 22.512C125.707 22.12 125.203 21.6627 124.531 21.14C123.953 20.6733 123.486 20.272 123.131 19.936C122.795 19.5813 122.497 19.152 122.235 18.648C121.993 18.1253 121.871 17.528 121.871 16.856C121.871 15.8667 122.198 15.0547 122.851 14.42C123.523 13.7667 124.419 13.44 125.539 13.44H127.975V15.12H125.959C124.634 15.12 123.971 15.7453 123.971 16.996C123.971 17.4813 124.121 17.9013 124.419 18.256C124.718 18.6107 125.185 19.0307 125.819 19.516C126.398 19.964 126.874 20.3747 127.247 20.748C127.621 21.1027 127.938 21.56 128.199 22.12C128.461 22.6613 128.591 23.3053 128.591 24.052C128.591 25.3773 128.237 26.3667 127.527 27.02C126.837 27.6733 125.857 28 124.587 28H121.871V26.32Z" fill="white"/>
<path d="M36 19.9858C36 21.38 35.8327 22.7743 35.5259 24.0849H25.2084C23.7583 24.0849 22.4198 24.782 21.1371 26.26C20.0217 27.5148 19.0736 29.1879 18.0697 30.9168C16.6475 33.3986 15.1696 35.9641 13.1898 37.3583C10.4291 36.6054 7.91941 35.1833 5.8559 33.315H10.0108C11.8791 33.315 13.5244 32.4784 15.086 30.8053C16.4245 29.3274 17.5399 27.4033 18.5995 25.5349C20.5236 22.1887 22.3362 19.0098 25.1805 19.0098H35.9721C35.9721 19.3165 36 19.6511 36 19.9858Z" fill="#999999"/>
<path d="M18.0697 25.2011C19.0736 23.4443 20.0217 21.7991 21.1371 20.5442C22.4198 19.0942 23.7583 18.3692 25.2084 18.3692H35.9164C35.7491 16.473 35.275 14.6604 34.5779 12.9873H25.2084C22.3641 12.9873 20.5515 16.1662 18.6274 19.5125C17.5678 21.3808 16.4524 23.3049 15.1139 24.7828C13.5523 26.4838 11.9071 27.2925 10.0387 27.2925H1.53369C2.42602 29.3003 3.68087 31.1407 5.21456 32.6744H10.0108C13.7754 32.6744 15.9783 28.882 18.0697 25.2011Z" fill="#808080"/>
<path d="M18.6274 31.224C17.5678 33.0924 16.4524 35.0164 15.1139 36.4944C14.7514 36.8848 14.3889 37.2473 13.9985 37.5261C15.0581 37.7771 16.1735 37.9165 17.2889 37.9723C17.5399 37.5261 17.8188 37.08 18.0697 36.6338C19.0736 34.877 20.0217 33.2318 21.1371 31.9769C22.4199 30.5269 23.7584 29.8019 25.2084 29.8019H33.1C34.1038 28.2682 34.8846 26.5393 35.3866 24.7267H25.2084C22.3641 24.6989 20.5515 27.8778 18.6274 31.224Z" fill="#D3D3D3"/>
<path d="M18.6275 36.9402C18.4323 37.3027 18.2371 37.6374 18.014 37.9999C24.0651 37.9999 29.4191 35.0161 32.6817 30.415H25.2084C22.3641 30.415 20.5515 33.594 18.6275 36.9402Z" fill="#F2F2F2"/>
<path d="M17.9024 2C12.0464 2.02789 6.85976 4.84431 3.59717 9.19443H10.0108C13.6917 9.19443 15.8388 5.56933 17.9024 2Z" fill="#F2F2F2"/>
<path d="M18.0697 19.1767C19.0736 17.4199 20.0217 15.7747 21.1371 14.5198C22.4199 13.0698 23.7584 12.3448 25.2084 12.3448H34.299C33.4067 10.4207 32.1519 8.69179 30.6739 7.21387H25.2084C22.3641 7.21387 20.5515 10.3649 18.6274 13.7112C17.5678 15.5795 16.4524 17.5036 15.1139 18.9815C13.5523 20.6825 11.9071 21.4912 10.0388 21.4912H0.0557861C0.195213 23.3037 0.613494 25.0047 1.25486 26.6221H10.0109C13.7754 26.65 15.9783 22.8297 18.0697 19.1767Z" fill="#808080"/>
<path d="M18.0697 13.4051C19.0736 11.6484 20.0217 10.0031 21.1371 8.74828C22.4198 7.29824 23.7583 6.57322 25.2084 6.57322H30.0047C27.8296 4.64913 25.2084 3.22697 22.3083 2.50195C20.914 3.72891 19.7986 5.70877 18.6274 7.77229C17.5678 9.64061 16.4524 11.5647 15.1139 13.0426C13.5523 14.7436 11.9071 15.5523 10.0387 15.5523H0.557708C0.195198 16.9745 0 18.4524 0 19.9861C0 20.2928 0 20.5717 0.0278854 20.8784H10.0109C13.7754 20.8784 15.9783 17.086 18.0697 13.4051Z" fill="#999999"/>
<path d="M18.0697 7.46554C19.0736 5.70876 20.0217 4.06352 21.1371 2.80868C21.2766 2.64136 21.416 2.50194 21.5554 2.36251C20.6073 2.16731 19.6313 2.05577 18.6275 2C18.6275 2 18.6275 2 18.6275 2.02789C17.5399 3.89621 16.4245 5.8203 15.086 7.29822C13.5244 8.99923 11.8792 9.80791 10.0109 9.80791H3.15107C2.09142 11.3695 1.25486 13.0705 0.725037 14.9109H10.0109C13.7754 14.9388 15.9783 11.1185 18.0697 7.46554Z" fill="#D3D3D3"/>
</svg>
